<?xml version="1.0" encoding="utf-8"?>
<!-- Generator: Adobe Illustrator 26.3.1, SVG Export Plug-In . SVG Version: 6.00 Build 0)  -->
<svg version="1.1" id="Calque_1" xmlns="http://www.w3.org/2000/svg" xmlns:xlink="http://www.w3.org/1999/xlink" x="0px" y="0px"
	 viewBox="0 0 160 48.59" style="enable-background:new 0 0 160 48.59;" xml:space="preserve">
<style type="text/css">
	.st0{fill:#2F2B42;}
	.st1{fill:#8573E4;}
</style>
<g>
	<g>
		<g>
			<g>
				<path class="st0" d="M4.67,26.5c1.98,2.27,4.34,4.63,8.29,4.63c4.05,0,5.64-2.51,5.64-4.72c0-6.99-16.09-4.43-16.09-16.14
					C2.5,3.81,7.36,0,14.01,0c3.18,0,6.17,0.87,9.59,3.37l-3.28,4.92c-2.02-1.78-4.39-2.51-6.6-2.51c-3.13,0-4.96,1.45-4.96,3.86
					c0,7.18,16.14,3.9,16.14,16.48c0,6.36-4.1,10.79-12,10.79c-4.19,0-8.48-1.25-12.19-6.31L4.67,26.5z"/>
			</g>
		</g>
		<g>
			<circle class="st1" cx="22.08" cy="5.9" r="2.95"/>
		</g>
		<g>
			<circle class="st1" cx="2.85" cy="28.71" r="2.85"/>
		</g>
	</g>
	<path class="st0" d="M30.09,48.5V13.42h5.93v1.69c1.83-1.49,4-2.12,6.36-2.12c6.75,0,12.14,5.3,12.14,11.95c0,6.6-5.4,12-12.14,12
		c-2.36,0-4.53-0.63-6.36-2.12V48.5H30.09z M36.01,25.22c0.14,3.28,2.94,6.02,6.36,6.02c3.47,0,6.31-2.89,6.31-6.31
		c0-3.37-2.84-6.26-6.31-6.26c-3.42,0-6.22,2.79-6.36,6.02V25.22z"/>
	<path class="st0" d="M63.67,26.81c0.67,2.79,2.94,4.77,6.36,4.77c2.07,0,4.29-0.77,5.64-2.55l4.05,3.23
		c-2.07,2.94-5.73,4.67-9.64,4.67c-6.89,0-12.19-5.16-12.19-11.85c0-6.51,4.58-12.1,11.85-12.1c6.75,0,11.52,5.49,11.52,11.95
		c0,0.63-0.05,1.3-0.14,1.88H63.67z M75.29,22.48c-0.34-2.31-2.75-4.1-5.59-4.1c-2.75,0-4.96,1.64-5.83,4.1H75.29z"/>
	<path class="st0" d="M90.42,26.81c0.67,2.79,2.94,4.77,6.36,4.77c2.07,0,4.29-0.77,5.64-2.55l4.05,3.23
		c-2.07,2.94-5.73,4.67-9.64,4.67c-6.89,0-12.19-5.16-12.19-11.85c0-6.51,4.58-12.1,11.85-12.1c6.75,0,11.52,5.49,11.52,11.95
		c0,0.63-0.05,1.3-0.14,1.88H90.42z M102.03,22.48c-0.34-2.31-2.75-4.1-5.59-4.1c-2.75,0-4.96,1.64-5.83,4.1H102.03z"/>
	<path class="st0" d="M133.88,31.29c-2.12,3.37-5.98,5.64-10.36,5.64c-6.75,0-12.14-5.4-12.14-12c0-6.65,5.4-11.95,12.14-11.95
		c4.34,0,8.1,2.17,10.26,5.45l-5.06,2.94c-1.16-1.64-3.04-2.7-5.2-2.7c-3.47,0-6.31,2.89-6.31,6.26c0,3.42,2.84,6.31,6.31,6.31
		c2.27,0,4.24-1.16,5.35-2.94L133.88,31.29z"/>
	<path class="st0" d="M154.07,36.31V24.07c0-4.43-2.36-5.4-4.72-5.4c-2.36,0-4.72,0.92-4.72,5.3v12.34h-5.93V0.65h5.93V15.1
		c1.3-0.96,2.89-2.12,6.02-2.12c5.01,0,9.35,2.94,9.35,10.12v13.2H154.07z"/>
</g>
</svg>
